<?xml version="1.0" encoding="utf-8"?>
<!-- Generator: Adobe Illustrator 27.5.0, SVG Export Plug-In . SVG Version: 6.00 Build 0)  -->
<svg version="1.1" xmlns="http://www.w3.org/2000/svg" xmlns:xlink="http://www.w3.org/1999/xlink" x="0px" y="0px"
	 viewBox="0 0 750 500" style="enable-background:new 0 0 750 500;" xml:space="preserve">
<g id="BACKGROUND">
	<rect style="fill:#FFFFFF;" width="750" height="500"/>
</g>
<g id="OBJECTS">
	<g>
		<g>
			<path style="fill:#E1EDFF;" d="M47.55,224.261c0,0-24.821-8.837-16.549-33.387c8.272-24.55,46.329-25.162,48.273,0.726
				C80.16,203.4,73.452,231.97,47.55,224.261z"/>
			<path style="fill:#E1EDFF;" d="M91.297,433.251h556.109c28.627-19.264,49.579-51.79,54.239-92.77
				c8.254-72.595-28.544-121.606-75.872-141.503c-47.328-19.897-9.01-111.115-96.175-146.292
				c-68.858-27.788-154.369,3.396-188.441,52.081c-38.577,55.12-92.425,7.713-156.382,12.515
				c-63.957,4.803-98.134,61.848-81.007,127.812c15.031,57.893-70.756,35.667-64.867,116.384
				C41.474,396.752,66.778,419.424,91.297,433.251z"/>
		</g>
		<g>
			<g>
				<path style="fill:#92A7FF;" d="M622.918,138.45v-34.619c0-12.298-9.97-22.268-22.268-22.268h-81.662
					c-12.298,0-22.268,9.97-22.268,22.268v34.619H622.918z"/>
				<path style="fill:#738BEF;" d="M496.72,127.931v31.324c0,12.298,9.97,22.268,22.268,22.268h81.662
					c12.298,0,22.268-9.97,22.268-22.268v-31.324H496.72z"/>
				<path style="fill:#C3D1FC;" d="M584.45,100.34c-6.769-4.941-14.498-1.9-16.526-0.887c-1.357,0.679-3.769,1.448-5.254,1.448
					s-3.897-0.77-5.254-1.448c-2.027-1.014-9.756-4.055-16.526,0.887c-6.769,4.942-7.928,15.585-2.734,25.848
					c4.249,8.394,4.561,17.105,4.815,23.06c0.253,5.955,1.774,17.232,7.602,16.345c5.828-0.887,6.715-8.869,7.222-16.978
					c0.356-5.69,2.992-8.86,4.874-8.86c1.882,0,4.518,3.171,4.874,8.86c0.507,8.109,1.394,16.092,7.222,16.978
					c5.828,0.887,7.349-10.39,7.602-16.345c0.253-5.955,0.566-14.666,4.815-23.06C592.378,115.924,591.219,105.281,584.45,100.34z"
					/>
				<path style="fill:none;stroke:#738BEF;stroke-width:3;stroke-miterlimit:10;" d="M600.65,181.523h-81.662
					c-12.298,0-22.268-9.97-22.268-22.268v-55.423c0-12.298,9.97-22.268,22.268-22.268h81.662c12.298,0,22.268,9.97,22.268,22.268
					v55.423C622.918,171.553,612.948,181.523,600.65,181.523z"/>
			</g>
			<g>
				<path style="fill:#92A7FF;" d="M154.345,250.262h102.83c1.174,0,2.316,0.133,3.419,0.372v-55.839
					c-0.5,0.05-1.006,0.077-1.519,0.077h-106.63c-0.513,0-1.019-0.027-1.519-0.077v55.839
					C152.029,250.395,153.171,250.262,154.345,250.262z"/>
				<g>
					<path style="fill:#92A7FF;" d="M225.117,127.651h-38.713c-5.758,0-10.426-4.668-10.426-10.426V83.523
						c0-5.758,4.668-10.426,10.426-10.426h38.713c5.758,0,10.426,4.668,10.426,10.426v33.702
						C235.543,122.983,230.875,127.651,225.117,127.651z"/>
					<g>
						
							<line style="fill:none;stroke:#738BEF;stroke-linecap:round;stroke-linejoin:round;stroke-miterlimit:10;" x1="183.957" y1="122.688" x2="183.957" y2="97.266"/>
						
							<line style="fill:none;stroke:#738BEF;stroke-linecap:round;stroke-linejoin:round;stroke-miterlimit:10;" x1="192.678" y1="122.688" x2="192.678" y2="97.266"/>
						
							<line style="fill:none;stroke:#738BEF;stroke-linecap:round;stroke-linejoin:round;stroke-miterlimit:10;" x1="201.399" y1="122.688" x2="201.399" y2="97.266"/>
						
							<line style="fill:none;stroke:#738BEF;stroke-linecap:round;stroke-linejoin:round;stroke-miterlimit:10;" x1="210.121" y1="122.688" x2="210.121" y2="97.266"/>
						
							<line style="fill:none;stroke:#738BEF;stroke-linecap:round;stroke-linejoin:round;stroke-miterlimit:10;" x1="218.842" y1="122.688" x2="218.842" y2="97.266"/>
						
							<line style="fill:none;stroke:#738BEF;stroke-linecap:round;stroke-linejoin:round;stroke-miterlimit:10;" x1="227.564" y1="122.688" x2="227.564" y2="97.266"/>
					</g>
					<path style="fill:#92A7FF;" d="M235.64,129.544h-59.76c-3.098,0-5.609-2.511-5.609-5.609l0,0c0-3.098,2.511-5.609,5.609-5.609
						h59.76c3.098,0,5.609,2.511,5.609,5.609l0,0C241.249,127.033,238.738,129.544,235.64,129.544z"/>
				</g>
				<rect x="180.013" y="125.564" style="fill:none;stroke:#92A7FF;stroke-miterlimit:10;" width="51.493" height="11.412"/>
				<path style="fill:none;stroke:#92A7FF;stroke-miterlimit:10;" d="M259.075,194.871h-106.63c-8.294,0-15.018-6.724-15.018-15.018
					v-27.859c0-8.294,6.724-15.018,15.018-15.018h106.63c8.294,0,15.018,6.724,15.018,15.018v27.859
					C274.094,188.148,267.37,194.871,259.075,194.871z"/>
				<path style="fill:none;stroke:#92A7FF;stroke-miterlimit:10;" d="M250.23,423.176h-88.939c-12.718,0-23.029-10.31-23.029-23.029
					V273.29c0-12.718,10.31-23.029,23.029-23.029h88.939c12.718,0,23.029,10.31,23.029,23.029v126.856
					C273.258,412.865,262.948,423.176,250.23,423.176z"/>
				<path style="fill:#C3D1FC;stroke:#92A7FF;stroke-miterlimit:10;" d="M234.394,241.355h-57.268c-3.171,0-5.742-2.571-5.742-5.742
					v-26.65c0-3.171,2.571-5.742,5.742-5.742h57.268c3.171,0,5.742,2.571,5.742,5.742v26.65
					C240.136,238.784,237.565,241.355,234.394,241.355z"/>
			</g>
			<g>
				<g>
					<g>
						<path style="fill:none;stroke:#92A7FF;stroke-miterlimit:10;" d="M639.889,430.74c-6.318-4.505-6.941-33.079,18.955-38.863
							c13.225-2.954,11.107-9.574,13.779-18.09c2.672-8.516,6.026-9.143,13.596-10.298c7.571-1.156,1.886-11.475,10.872-17.451
							c8.986-5.976,21.047-6.435,25.541,6.626c3.804,11.058-6.972,15.929-9.17,21.072c-2.198,5.143,4.196,12.086-3.601,19.84
							c-7.796,7.755-16.136,1.917-16.238,10.13c-0.102,8.212-3.752,23.176-11.667,26.254
							C672.164,433.769,644.876,434.296,639.889,430.74z"/>
						<g>
							<g>
								<path style="fill:#92A7FF;" d="M649.304,433.344c3.45-4.113,7.033-8.117,10.489-12.226
									c8.597-10.22,16.988-20.615,25.184-31.16c5.988-7.705,11.869-15.493,17.63-23.369c0.571-0.78-0.73-1.529-1.295-0.757
									c-9.678,13.23-19.692,26.214-29.997,38.962c-6.383,7.896-12.872,15.709-19.508,23.395c-1.182,1.369-2.402,2.709-3.564,4.094
									C647.626,433.018,648.682,434.084,649.304,433.344L649.304,433.344z"/>
							</g>
						</g>
					</g>
					<g>
						<path style="fill:none;stroke:#92A7FF;stroke-miterlimit:10;" d="M671.779,380.106c-0.692-6.186-1.589-12.248-2.101-17.884
							c-2.081-22.914,26.921-12.671,38.474-42.075c11.552-29.404-16.728-40.09-3.428-52.395c13.3-12.305,21.936-49.555-2.469-61.856
							c-24.073-12.134-47.955,7.815-51.041,30.526c-2.38,17.518,8.406,29.751-19.665,42.593
							c-28.071,12.841-23.734,28.788-17.968,59.286c5.766,30.499-13.204,19.317-27.947,45.061
							c-11.683,20.401,4.525,42.128,11.845,49.889l57.015-0.118"/>
						<g>
							<g>
								<g>
									<path style="fill:#92A7FF;" d="M608.088,433.333c0.621-1.545,1.243-3.09,1.866-4.635c1.723-4.277,3.449-8.553,5.177-12.829
										c2.583-6.393,5.171-12.784,7.763-19.174c3.223-7.948,6.453-15.893,9.689-23.835c3.637-8.928,7.283-17.852,10.939-26.772
										c3.843-9.376,7.697-18.747,11.567-28.112c3.786-9.162,7.586-18.318,11.41-27.464c3.524-8.428,7.066-16.849,10.646-25.254
										c3.016-7.083,6.056-14.155,9.156-21.201c2.291-5.206,4.604-10.406,7.044-15.544c0.429-0.902,0.862-1.803,1.304-2.699
										c0.425-0.863-0.869-1.624-1.295-0.757c-2.251,4.575-4.344,9.229-6.419,13.887c-2.955,6.633-5.839,13.297-8.699,19.971
										c-3.484,8.132-6.928,16.281-10.351,24.438c-3.798,9.05-7.57,18.111-11.327,27.179c-3.866,9.332-7.715,18.672-11.552,28.016
										c-3.744,9.118-7.477,18.241-11.2,27.368c-3.378,8.278-6.747,16.56-10.111,24.844c-2.772,6.828-5.54,13.658-8.303,20.489
										c-1.965,4.859-3.928,9.719-5.888,14.58c-0.911,2.26-1.938,4.506-2.742,6.807c-0.035,0.101-0.08,0.199-0.12,0.298
										C606.282,433.83,607.732,434.219,608.088,433.333L608.088,433.333z"/>
								</g>
							</g>
							<g>
								<g>
									<g>
										<path style="fill:#92A7FF;" d="M661.038,303.379c11.146-0.671,22.293-1.343,33.439-2.014
											c1.552-0.094,3.103-0.187,4.655-0.28c0.959-0.058,0.966-1.558,0-1.5c-11.146,0.671-22.293,1.343-33.439,2.014
											c-1.552,0.094-3.104,0.187-4.655,0.28C660.079,301.937,660.072,303.437,661.038,303.379L661.038,303.379z"/>
									</g>
								</g>
								<g>
									<g>
										<path style="fill:#92A7FF;" d="M622.574,397.857c8.776-1.075,17.552-2.15,26.328-3.225
											c1.239-0.152,2.477-0.303,3.716-0.455c0.946-0.116,0.958-1.617,0-1.5c-8.776,1.075-17.552,2.15-26.328,3.225
											c-1.239,0.152-2.477,0.303-3.716,0.455C621.628,396.473,621.616,397.974,622.574,397.857L622.574,397.857z"/>
									</g>
								</g>
							</g>
							<g>
								<g>
									<path style="fill:#92A7FF;" d="M618.983,294.007c2.521,6.161,5.042,12.323,7.563,18.484
										c4.018,9.821,8.036,19.642,12.054,29.462c0.922,2.254,1.845,4.509,2.767,6.763c0.361,0.881,1.812,0.496,1.446-0.399
										c-2.521-6.161-5.042-12.323-7.563-18.485c-4.018-9.821-8.036-19.642-12.054-29.462c-0.922-2.254-1.845-4.509-2.767-6.763
										C620.069,292.726,618.617,293.112,618.983,294.007L618.983,294.007z"/>
								</g>
							</g>
						</g>
						<path style="fill:none;stroke:#92A7FF;stroke-miterlimit:10;" d="M673.968,231.404c-1.863,2.98-5.107,4.111-7.245,2.526
							c-2.138-1.585-2.361-5.285-0.498-8.265c1.863-2.98,5.106-4.111,7.245-2.526C675.608,224.723,675.831,228.424,673.968,231.404z
							"/>
						<path style="fill:none;stroke:#92A7FF;stroke-miterlimit:10;" d="M675.335,247.515c0,1.575-1.173,2.852-2.619,2.852
							c-1.446,0-2.619-1.277-2.619-2.852c0-1.575,1.173-2.852,2.619-2.852C674.162,244.663,675.335,245.94,675.335,247.515z"/>
						<path style="fill:none;stroke:#92A7FF;stroke-miterlimit:10;" d="M694.325,321.073c0,3.061-2.279,5.542-5.089,5.542
							c-2.811,0-5.089-2.481-5.089-5.542c0-3.06,2.279-5.542,5.089-5.542C692.046,315.532,694.325,318.013,694.325,321.073z"/>
					</g>
					<path style="fill:none;stroke:#92A7FF;stroke-miterlimit:10;" d="M610.69,323.117c-1.945-5.042-5.244-9.328-10.826-10.138
						c-14.884-2.159-19.957-10.344-21.078-20.599c-2.44-22.332-28.159-30.19-37.616-12.834
						c-8.154,14.965,16.309,31.634,6.716,41.527c-9.594,9.894-12.791,36.787,3.198,39.969c15.989,3.182,5.436,12.154,5.117,26.536
						c-0.32,14.381,25.326,45.186,25.326,45.186"/>
					
						<line style="fill:none;stroke:#92A7FF;stroke-linecap:round;stroke-linejoin:round;stroke-miterlimit:10;" x1="547.306" y1="272.765" x2="591.745" y2="374.786"/>
					
						<line style="fill:none;stroke:#92A7FF;stroke-linecap:round;stroke-linejoin:round;stroke-miterlimit:10;" x1="579.988" y1="312.145" x2="572.853" y2="331.415"/>
					
						<line style="fill:none;stroke:#92A7FF;stroke-linecap:round;stroke-linejoin:round;stroke-miterlimit:10;" x1="553.418" y1="351.016" x2="580.992" y2="350.1"/>
				</g>
				<g>
					<g>
						<g>
							<path style="fill:none;stroke:#92A7FF;stroke-miterlimit:10;" d="M117.882,432.765c-9.087,0.252-49.388,5.734-48.38-23.088
								c0.552-15.801-4.291-15.233-13.554-21.428c-9.263-6.195-9.039-10.157-8.227-19.002c0.812-8.846-8.005-4.562-13.878-16.194
								c-7.026-13.915,1.434-24.297,15.086-26.796c13.653-2.499,13.256,12.228,18.682,16.617c5.427,4.39,12.929-5.049,23.355,7.749
								c6.806,8.355-3.762,27.417,6.25,25.641"/>
						</g>
						<g>
							<g>
								<g>
									<path style="fill:#92A7FF;" d="M98.055,404.587c-9.866-13.334-20.147-26.362-30.787-39.087
										c-3.72-4.449-7.485-8.859-11.293-13.233c-0.635-0.729-1.692,0.335-1.061,1.061c11.948,13.727,23.48,27.818,34.527,42.281
										c2.464,3.226,4.903,6.471,7.318,9.735C97.327,406.112,98.63,405.364,98.055,404.587L98.055,404.587z"/>
								</g>
							</g>
							<g>
								<g>
									<path style="fill:#92A7FF;" d="M76.184,351.154c-0.492,7.361-0.984,14.722-1.476,22.083c-0.07,1.045-0.14,2.09-0.21,3.135
										c0.25-0.25,0.5-0.5,0.75-0.75c-6.758,0.56-13.515,1.12-20.273,1.679c-0.955,0.079-0.964,1.58,0,1.5
										c6.758-0.56,13.515-1.119,20.273-1.679c0.425-0.035,0.721-0.316,0.75-0.75c0.492-7.361,0.984-14.722,1.476-22.083
										c0.07-1.045,0.14-2.09,0.21-3.135C77.749,350.19,76.248,350.194,76.184,351.154L76.184,351.154z"/>
								</g>
							</g>
						</g>
					</g>
					<g>
						<g>
							<path style="fill:none;stroke:#92A7FF;stroke-miterlimit:10;" d="M55.648,248.888c-16.947-13.804-20.998-56.445,3.146-69.392
								c29.854-16.008,61.105,8.767,65.036,34.245c3.033,19.652-10.712,33.377,25.057,47.783
								c35.769,14.406,30.242,32.296,22.895,66.51c-7.348,34.215,16.824,21.67,35.61,50.551
								c14.886,22.886-6.101,45.961-15.428,54.667l-73.096-0.089c-2.369-1.397-4.642-2.956-6.777-4.701
								c-23.628-19.313-14.241-49.828-11.79-73.593c2.652-25.706-34.303-14.215-49.023-47.202
								C36.56,274.679,72.595,262.691,55.648,248.888z"/>
						</g>
						<g>
							<g>
								<g>
									<path style="fill:#92A7FF;" d="M178.825,432.638c-0.808-1.838-1.617-3.675-2.427-5.512
										c-2.227-5.053-4.458-10.104-6.691-15.154c-3.351-7.578-6.708-15.154-10.071-22.727c-4.18-9.414-8.369-18.824-12.568-28.229
										c-4.695-10.518-9.403-21.031-14.125-31.536c-4.951-11.016-9.919-22.024-14.909-33.022
										c-4.894-10.785-9.809-21.561-14.758-32.321c-4.522-9.832-9.072-19.651-13.674-29.446
										c-3.886-8.269-7.805-16.523-11.814-24.732c-2.922-5.983-5.874-11.957-9.016-17.829c-0.55-1.028-1.108-2.053-1.677-3.071
										c-0.471-0.843-1.767-0.087-1.295,0.757c2.899,5.186,5.56,10.506,8.198,15.828c3.819,7.706,7.533,15.464,11.212,23.237
										c4.497,9.502,8.935,19.032,13.343,28.576c4.896,10.6,9.755,21.217,14.59,31.844c4.988,10.962,9.951,21.936,14.897,32.917
										c4.828,10.719,9.639,21.445,14.437,32.178c4.356,9.743,8.701,19.491,13.037,29.243c3.579,8.05,7.151,16.103,10.717,24.159
										c2.536,5.73,5.069,11.462,7.598,17.195c1.182,2.679,2.272,5.423,3.55,8.058c0.055,0.113,0.101,0.23,0.152,0.345
										C177.917,434.277,179.21,433.515,178.825,432.638L178.825,432.638z"/>
								</g>
							</g>
							<g>
								<g>
									<g>
										<path style="fill:#92A7FF;" d="M111.312,287.264c-5.473-0.29-10.946-0.581-16.419-0.871
											c-8.716-0.462-17.432-0.924-26.148-1.387c-1.991-0.106-3.982-0.211-5.973-0.317c-0.965-0.051-0.962,1.449,0,1.5
											c5.473,0.29,10.946,0.581,16.419,0.871c8.716,0.462,17.432,0.924,26.148,1.387c1.991,0.106,3.982,0.211,5.973,0.317
											C112.277,288.815,112.274,287.315,111.312,287.264L111.312,287.264z"/>
									</g>
								</g>
								<g>
									<g>
										<path style="fill:#92A7FF;" d="M160.324,393.253c-6.168-0.665-12.335-1.33-18.503-1.995
											c-9.779-1.055-19.558-2.109-29.337-3.164c-2.249-0.242-4.498-0.485-6.747-0.728c-0.959-0.103-0.951,1.397,0,1.5
											c6.168,0.665,12.335,1.33,18.503,1.995c9.779,1.055,19.558,2.109,29.337,3.164c2.249,0.242,4.498,0.485,6.747,0.727
											C161.282,394.857,161.275,393.356,160.324,393.253L160.324,393.253z"/>
									</g>
								</g>
							</g>
							<g>
								<g>
									<path style="fill:#92A7FF;" d="M163.33,277.739c-3.219,6.928-6.438,13.855-9.657,20.783
										c-5.123,11.024-10.246,22.048-15.368,33.072c-1.165,2.507-2.33,5.014-3.495,7.521c-0.404,0.87,0.888,1.633,1.295,0.757
										c3.219-6.927,6.438-13.855,9.657-20.783c5.123-11.024,10.246-22.048,15.368-33.073c1.165-2.507,2.33-5.014,3.495-7.521
										C165.029,277.626,163.737,276.863,163.33,277.739L163.33,277.739z"/>
								</g>
							</g>
						</g>
						<path style="fill:none;stroke:#92A7FF;stroke-miterlimit:10;" d="M94.836,208.11c2.374,3.343,6.507,4.612,9.231,2.834
							c2.724-1.778,3.009-5.929,0.635-9.272c-2.374-3.343-6.507-4.612-9.231-2.834C92.747,200.616,92.463,204.767,94.836,208.11z"/>
						<path style="fill:none;stroke:#92A7FF;stroke-miterlimit:10;" d="M93.095,226.185c0,1.767,1.494,3.199,3.337,3.199
							c1.843,0,3.337-1.432,3.337-3.199s-1.494-3.2-3.337-3.2C94.589,222.986,93.095,224.418,93.095,226.185z"/>
						<path style="fill:none;stroke:#92A7FF;stroke-miterlimit:10;" d="M68.898,308.706c0,3.433,2.903,6.217,6.485,6.217
							c3.582,0,6.485-2.783,6.485-6.217c0-3.434-2.903-6.217-6.485-6.217C71.802,302.489,68.898,305.272,68.898,308.706z"/>
					</g>
				</g>
			</g>
		</g>
		<g>
			<g>
				<g>
					<g>
						<g>
							<g>
								<g>
									<polygon style="fill:#933F1F;" points="281.668,348.978 262.461,371.044 250.113,358.53 266.805,336.859 									"/>
									<g>
										<polygon style="fill:#050048;" points="273.962,407.834 232.141,371.338 250.266,353.018 269.869,370.095 
											265.301,376.044 										"/>
									</g>
								</g>
								<polygon style="fill:#79BBC8;" points="287.202,359.32 259.507,336.297 278.426,296.349 288.62,241.628 323.823,246.243 
									314.671,312.641 								"/>
								<polyline style="fill:none;stroke:#0F110E;stroke-linecap:round;stroke-miterlimit:10;" points="314.671,312.641 
									287.202,359.32 259.507,336.297 								"/>
							</g>
							<g>
								<g>
									<polygon style="fill:#933F1F;" points="323.526,389.565 323.526,360.431 304.992,360.431 305.563,391.395 									"/>
									<g>
										<polygon style="fill:#050048;" points="355.962,408.144 300.461,408.923 301.943,385.405 327.851,384.691 328.28,390.274 
																					"/>
									</g>
								</g>
								<g>
									<polygon style="fill:#79BBC8;" points="287.169,244.382 295.792,366.273 332.516,366.273 339.057,242.495 									"/>
								</g>
								<g>
									<polyline style="fill:none;stroke:#12120E;stroke-linecap:round;stroke-miterlimit:10;" points="287.169,244.382 
										295.792,366.273 332.516,366.273 									"/>
								</g>
							</g>
						</g>
						<path style="fill:#FCD7C8;" d="M373.163,171.985l-11.498-8.228c0,0,5.88-9.325,7.038-11.292
							c1.158-1.967,2.947-3.763,5.006-2.481c2.059,1.281,7.169,8.103,5.976,10.209C378.491,162.299,373.163,171.985,373.163,171.985
							z"/>
						<g>
							<path style="fill:#FFFFFF;stroke:#000000;stroke-miterlimit:10;" d="M315.201,160.428l20.558,14.836l25.559-15.916
								l15.483,15.107c0,0-12.374,30.078-22.546,39.782c-9.443,9.009-30.271,0.575-33.151-0.598
								c-2.88-1.173-20.516-13.149-20.516-13.149L315.201,160.428z"/>
						</g>
					</g>
					<g>
						<path style="fill:#FFFFFF;stroke:#000000;stroke-miterlimit:10;" d="M306.675,146.991l5.992-1.256
							c0,0,8.762,2.548,14.567,18.348c5.804,15.8,16.274,38.654,18.586,92.313c2.312,53.659,1.702,57.29,1.702,57.29l-85.976-5.268
							l22.573-126.665l19.739-34.779L306.675,146.991z"/>
						<path style="fill:#92A7FF;stroke:#000000;stroke-miterlimit:10;" d="M328.673,161.525c3.535,7.968,6.862,18.603,10.126,34.655
							c-4.569-13.605-12.897-34.588-25.509-46.481c0,0-0.176-2.366,1.28-3.966c2.519,0.703,0.263-4.663,3.869,0.432
							C319.536,147.715,325.635,154.677,328.673,161.525z"/>
					</g>
					<g>
						<g>
							<g>
								<g>
									<g>
										<g>
											<g>
												<path style="fill:#FCD7C8;" d="M330.332,123.293c0.508,1.559,1.711,4.03,2.88,5.179
													c0.035,0.034,0.072,0.072,0.076,0.121c0.005,0.068-0.056,0.121-0.111,0.161c-0.618,0.444-1.279,0.828-1.971,1.145
													l-1.069,0.518L330.332,123.293z"/>
												<g>
													<path style="fill:#12120E;" d="M329.971,123.393c0.555,1.68,1.367,3.366,2.463,4.761
														c0.125,0.159,0.254,0.314,0.393,0.46c0.02,0.021,0.04,0.042,0.06,0.063c0.105,0.125,0.104,0.067-0.002-0.173
														c-0.029-0.006-0.286,0.195-0.315,0.214c-0.46,0.302-0.941,0.569-1.438,0.804c-0.396,0.188-0.789,0.38-1.184,0.571
														c0.188,0.108,0.376,0.216,0.564,0.324c0.057-2.076,0.114-4.152,0.17-6.227c0.008-0.299,0.016-0.598,0.024-0.896
														c0.013-0.483-0.737-0.482-0.75,0c-0.057,2.076-0.113,4.151-0.17,6.227c-0.008,0.299-0.016,0.598-0.025,0.896
														c-0.008,0.303,0.32,0.442,0.564,0.324c0.47-0.228,0.944-0.449,1.412-0.682c0.492-0.245,0.967-0.524,1.42-0.835
														c0.2-0.137,0.441-0.271,0.491-0.531c0.045-0.233-0.083-0.388-0.233-0.547c-0.641-0.676-1.132-1.481-1.569-2.299
														c-0.455-0.851-0.852-1.737-1.154-2.654C330.543,122.737,329.819,122.933,329.971,123.393z"/>
												</g>
											</g>
											<path style="fill:#FCD7C8;" d="M322.857,112.246l-6.54,0.003c-4.348,0.002-7.903,4.054-7.901,9.004l0.004,10.137
												c0,0.286,0.015,0.568,0.038,0.847c-0.07,0.299-0.111,0.609-0.111,0.929l0.003,6.171l0,0.344l0.003,6.171
												c0.001,2.239,1.834,4.07,4.073,4.07l2.594-0.001c2.239-0.001,4.07-1.834,4.069-4.073l-0.002-5.461l3.781-0.002
												c4.348-0.002,7.903-4.053,7.901-9.004l-0.004-10.137C330.763,116.292,327.204,112.244,322.857,112.246z"/>
											<g>
												<path style="fill:#010001;" d="M326.52,125.419c0.345,0.682,0.072,1.513-0.609,1.858
													c-0.682,0.345-1.514,0.072-1.858-0.609c-0.345-0.682-0.072-1.513,0.609-1.858
													C325.344,124.465,326.176,124.738,326.52,125.419z"/>
											</g>
											<g>
												<g>
													<path style="fill:#12120E;" d="M330.252,133.777c-0.096,0.028-0.192,0.052-0.291,0.07
														c-0.018,0.003-0.037,0.005-0.055,0.009c0.087-0.017,0.04-0.005,0.019-0.003c-0.052,0.005-0.103,0.01-0.156,0.011
														c-0.073,0.002-0.145-0.005-0.218-0.007c-0.08-0.002,0.071,0.015,0.02,0.003c-0.018-0.004-0.037-0.006-0.055-0.01
														c-0.036-0.007-0.071-0.015-0.107-0.025c-0.034-0.009-0.068-0.02-0.101-0.032c-0.013-0.005-0.026-0.01-0.039-0.014
														c-0.07-0.023,0.066,0.033,0.023,0.01c-0.062-0.034-0.125-0.062-0.185-0.101c-0.022-0.014-0.043-0.03-0.065-0.045
														c-0.062-0.04,0.069,0.06,0.014,0.011c-0.01-0.009-0.02-0.016-0.03-0.025c-0.049-0.042-0.095-0.086-0.138-0.133
														c-0.021-0.023-0.043-0.047-0.063-0.072c-0.008-0.01-0.016-0.02-0.024-0.029c-0.045-0.053,0.044,0.064,0.018,0.023
														c-0.033-0.053-0.072-0.102-0.105-0.155c-0.062-0.1-0.114-0.205-0.163-0.312c-0.039-0.086,0.032,0.083-0.002-0.006
														c-0.008-0.021-0.017-0.042-0.024-0.063c-0.02-0.052-0.038-0.106-0.055-0.159c-0.027-0.086-0.051-0.173-0.072-0.261
														c-0.017-0.07-0.031-0.141-0.043-0.212c-0.003-0.02-0.005-0.039-0.009-0.059c0.001,0.004,0.016,0.129,0.01,0.074
														c-0.022-0.194-0.157-0.385-0.375-0.375c-0.184,0.008-0.398,0.166-0.375,0.375c0.104,0.926,0.586,1.941,1.522,2.258
														c0.426,0.144,0.898,0.101,1.322-0.024c0.188-0.055,0.325-0.266,0.262-0.461
														C330.652,133.848,330.453,133.718,330.252,133.777L330.252,133.777z"/>
												</g>
											</g>
											<g>
												<g>
													<path style="fill:#12120E;" d="M325.283,122.763c-0.332,0.166-0.668,0.325-1.008,0.475
														c-0.331,0.146-0.616,0.264-0.977,0.403c-0.182,0.07-0.329,0.255-0.262,0.461c0.057,0.178,0.265,0.338,0.461,0.262
														c0.736-0.284,1.459-0.602,2.165-0.954c0.176-0.088,0.239-0.351,0.134-0.513
														C325.68,122.717,325.471,122.669,325.283,122.763L325.283,122.763z"/>
												</g>
											</g>
										</g>
										<g>
											<path style="fill:#12120E;" d="M311.797,105.657c-6.874,1.882-16.103,5.176-14.663,20.89c0,0,1.832,9.558,11.215,12.022
												l-0.06-9.714l1.295-0.972l1.039,3.109c0,0,3.694,0.657,5.855-5.237c3.878-1.045,9.6-3.023,14.544-8.057
												c3.785-3.854,1.204-10.357-5.827-12.035C317.553,103.842,315.46,104.654,311.797,105.657z"/>
											<g>
												<path style="fill:#FCD7C8;" d="M302.443,130.965c0.167,2.768,2.565,4.876,5.356,4.707
													c2.791-0.169,4.918-2.549,4.751-5.318c-0.167-2.768-2.565-4.876-5.356-4.707
													C304.403,125.816,302.276,128.197,302.443,130.965z"/>
												<g>
													<g>
														<path style="fill:#12120E;" d="M310.599,131.171c0.004-1.287-0.689-2.617-1.928-3.084
															c-0.638-0.241-1.341-0.216-2.003-0.107c-0.2,0.033-0.312,0.281-0.262,0.461c0.058,0.212,0.261,0.295,0.461,0.262
															c0.518-0.086,1.008-0.087,1.481,0.064c0.052,0.016,0.103,0.035,0.153,0.054c0.067,0.025,0.011,0.004-0.002-0.001
															c0.028,0.012,0.056,0.025,0.084,0.039c0.089,0.044,0.176,0.093,0.259,0.148c0.016,0.011,0.14,0.102,0.063,0.042
															c0.037,0.029,0.073,0.059,0.107,0.09c0.068,0.06,0.132,0.125,0.193,0.193c0.03,0.033,0.057,0.068,0.086,0.102
															c-0.065-0.079,0.021,0.03,0.035,0.051c0.049,0.07,0.094,0.143,0.136,0.218c0.039,0.069,0.074,0.139,0.108,0.211
															c0.017,0.037,0.049,0.117,0.016,0.033c0.017,0.044,0.035,0.088,0.051,0.133c0.094,0.258,0.132,0.519,0.192,0.785
															c-0.034-0.148,0.003,0.029,0.007,0.074c0.004,0.041,0.007,0.081,0.009,0.122c0.002,0.037,0.004,0.074,0.004,0.111
															C309.847,131.654,310.597,131.654,310.599,131.171L310.599,131.171z"/>
													</g>
												</g>
											</g>
										</g>
										<path style="fill:#FFA6A6;" d="M323.554,130.044c0.072,1.882-1.395,3.467-3.278,3.539
											c-1.882,0.072-3.467-1.395-3.539-3.278c-0.072-1.882,1.395-3.467,3.278-3.539
											C321.897,126.694,323.482,128.162,323.554,130.044z"/>
									</g>
								</g>
							</g>
						</g>
						<g>
							<path style="fill:#FFFFFF;" d="M341.518,204.27c0,0-9.912-30.356-17.189-41.768c-7.277-11.412-15.982-20.188-15.982-20.188
								l-5.242,3.851l16.653,19.881l-6.412,1.503l24.257,44.99L341.518,204.27z"/>
							<path style="fill:none;stroke:#12120E;stroke-linecap:round;stroke-miterlimit:10;" d="M335.632,207.887l-22.286-40.337
								l6.412-1.503l-11.251-14.082l-5.402-5.799l4.391-5.145c0,0,13.342,14.535,19.205,25.514
								c5.863,10.979,16.123,40.266,16.123,40.266"/>
						</g>
					</g>
					<g>
						<g>
							<g>
								<path style="fill:#F2B4C9;stroke:#12120E;stroke-linecap:round;stroke-miterlimit:10;" d="M394.018,165.386
									c1.527-2.226,0.922-5.105,4.356-7.39c3.434-2.285,4.04-3.037,5.479-5.777s1.337-5.657,5.156-7.1
									c3.82-1.443,4.354-3.316,4.737-5.223c0.383-1.906,1.176-3.661,3.895-4.837c2.72-1.177,4.616-4.522,5.417-6.447
									c0.801-1.925,1.515-4.362,3.755-5.305c2.24-0.943,3.484-2.865,4.505-5.233c0.385-0.893,0.913-1.556,1.421-2.036
									l-13.146-10.586L378.39,156.62l13.403,10.793C392.582,167.179,393.183,166.602,394.018,165.386z"/>
								
									<line style="fill:none;stroke:#12120E;stroke-linecap:round;stroke-miterlimit:10;" x1="430.634" y1="119.505" x2="425.108" y2="115.054"/>
								
									<line style="fill:none;stroke:#12120E;stroke-linecap:round;stroke-miterlimit:10;" x1="420.356" y1="115.014" x2="428.785" y2="121.802"/>
								
									<line style="fill:none;stroke:#12120E;stroke-linecap:round;stroke-miterlimit:10;" x1="421.635" y1="119.367" x2="426.496" y2="123.282"/>
								
									<line style="fill:none;stroke:#12120E;stroke-linecap:round;stroke-miterlimit:10;" x1="415.041" y1="123.759" x2="422.422" y2="129.703"/>
								
									<line style="fill:none;stroke:#12120E;stroke-linecap:round;stroke-miterlimit:10;" x1="420.77" y1="132.493" x2="415.367" y2="128.141"/>
								
									<line style="fill:none;stroke:#12120E;stroke-linecap:round;stroke-miterlimit:10;" x1="407.482" y1="136.942" x2="413.024" y2="141.406"/>
								
									<line style="fill:none;stroke:#12120E;stroke-linecap:round;stroke-miterlimit:10;" x1="407.19" y1="132.189" x2="414.204" y2="137.837"/>
								
									<line style="fill:none;stroke:#12120E;stroke-linecap:round;stroke-miterlimit:10;" x1="402.775" y1="137.671" x2="410.658" y2="144.019"/>
								
									<line style="fill:none;stroke:#12120E;stroke-linecap:round;stroke-miterlimit:10;" x1="399.491" y1="145.792" x2="404.343" y2="149.699"/>
								
									<line style="fill:none;stroke:#12120E;stroke-linecap:round;stroke-miterlimit:10;" x1="394.239" y1="145.283" x2="403.049" y2="152.378"/>
								
									<line style="fill:none;stroke:#12120E;stroke-linecap:round;stroke-miterlimit:10;" x1="397.037" y1="150.903" x2="401.937" y2="154.849"/>
								
									<line style="fill:none;stroke:#12120E;stroke-linecap:round;stroke-miterlimit:10;" x1="390.967" y1="155.318" x2="396.504" y2="159.777"/>
								
									<line style="fill:none;stroke:#12120E;stroke-linecap:round;stroke-miterlimit:10;" x1="390.177" y1="158.903" x2="394.798" y2="162.624"/>
							</g>
							<path style="fill:#3B55F1;stroke:#12120E;stroke-miterlimit:10;" d="M420.498,100.863L420.498,100.863
								c-5.085-4.095-12.528-3.293-16.623,1.793L259.767,280.949c-3.007,3.734-1.673,9.799,2.98,13.546l2.887,2.325
								c4.653,3.747,10.863,3.757,13.87,0.023l82.563-102.526c0.49-0.608,0.897-1.281,1.214-2.005l7.64-24.887l0,0l50.053-62.156
								C422.059,103.921,421.846,101.948,420.498,100.863z"/>
						</g>
						<g>
							<g>
								<g>
									<path style="fill:#FCD7C8;" d="M297.574,209.202c0,0,12.196,2.908,16.86,3.019c4.664,0.111,12.254-1.333,12.994,0.629
										c0.74,1.962-4.887,2.64-4.887,2.64s8.258,0.432,9.201,2.024c0.943,1.592-0.045,2.608-3.476,2.473
										c0,0,4.089,0.266,4.087,2.303c-0.001,2.036-4.194,0.999-5.615,0.888c0,0,5.061,0.389,5.004,2.471
										c-0.057,2.083-6.647,0.608-6.647,0.608s5.442,0.438,5.294,2.326c-0.148,1.888-6.812,1.791-13.291,0.488
										c-6.479-1.303-23.227-5.894-23.227-5.894L297.574,209.202z"/>
									<g>
										
											<line style="fill:none;stroke:#12120E;stroke-linecap:round;stroke-miterlimit:10;" x1="328.983" y1="226.456" x2="321.208" y2="225.65"/>
										
											<line style="fill:none;stroke:#12120E;stroke-linecap:round;stroke-miterlimit:10;" x1="329.649" y1="223.512" x2="321.208" y2="222.429"/>
										<path style="fill:none;stroke:#12120E;stroke-linecap:round;stroke-miterlimit:10;" d="M330.15,220.093
											c-0.14,0.087-8.163-0.644-8.163-0.644"/>
									</g>
								</g>
								<g>
									<g>
										<path style="fill:#FFFFFF;" d="M310.379,173.13l-8.437-16.132l3.88-6.438l-3.118-4.394c0,0-11.467,3.48-17.155,7.261
											c-16.904,11.237-35.349,32.426-34.558,52.033c0.312,7.718,2.915,12.039,6.903,15.508
											c5.667,4.929,14.215,7.297,23.702,8.045c9.568,0.754,17.793,0.123,17.793,0.123l4.547-19.378l-16.768-8.89
											C297.601,178.712,310.379,173.13,310.379,173.13z"/>
									</g>
									<g>
										<path style="fill:none;stroke:#12120E;stroke-linecap:round;stroke-miterlimit:10;" d="M279.666,196.889l24.271,12.867
											l-4.547,19.378c0,0-10.747,0.895-31.098-2.045c0,0-20.935-6.443-16.752-26.41c4.183-19.967,17.983-34.428,23.69-39.581
											c11.246-10.153,23.772-14.41,27.875-14.933"/>
										<path style="fill:none;stroke:#12120E;stroke-linecap:round;stroke-miterlimit:10;" d="M287.169,200.867
											c0,0,5.398-9.835,11.326-17.825c0,0,4.03-5.2,5.828-6.827"/>
									</g>
								</g>
							</g>
						</g>
						<g>
							<path style="fill:#FCD7C8;" d="M376.708,160.77c0,0-5.334-8.775-5.792-10.589c-0.457-1.814,0.33-3.333,1.909-2.088
								c0,0-1.728-1.88-1.19-2.575c0.539-0.695,1.935-0.758,3.976,1.071c0,0-2.922-2.281-2.236-3.653
								c0.686-1.372,3.478-0.089,5.312,1.413c0,0-4.23-2.934-1.827-3.46c2.403-0.526,8.382,3.089,9.508,5.369
								c1.126,2.28-1.718,6.188-2.039,9.179c-0.322,2.991-2.418,4.968-3.885,6.208c-1.467,1.241-4.254,4.151-6.607,9.115
								l-1.071-4.123L376.708,160.77z"/>
							<g>
								<g>
									<g>
										<path style="fill:#0F110E;" d="M380.038,155.084c-2.379-2.794-4.897-5.467-7.545-8.008
											c-0.464-0.446-1.173,0.26-0.707,0.707c2.648,2.541,5.166,5.213,7.545,8.008
											C379.748,156.282,380.453,155.571,380.038,155.084L380.038,155.084z"/>
									</g>
								</g>
								<g>
									<g>
										<path style="fill:#0F110E;" d="M382.189,152.015c-2.813-2.806-5.784-5.446-8.901-7.91c-0.5-0.395-1.212,0.308-0.707,0.707
											c3.117,2.463,6.089,5.104,8.901,7.91C381.938,153.177,382.645,152.47,382.189,152.015L382.189,152.015z"/>
									</g>
								</g>
								<g>
									<g>
										<path style="fill:#0F110E;" d="M383.626,147.845c-2.707-2.175-5.469-4.28-8.286-6.311
											c-0.523-0.377-1.022,0.49-0.505,0.863c2.747,1.981,5.443,4.033,8.083,6.154
											C383.416,148.952,384.128,148.249,383.626,147.845L383.626,147.845z"/>
									</g>
								</g>
							</g>
						</g>
					</g>
				</g>
			</g>
		</g>
		<g>
			<g>
				<g>
					<path style="fill:#F2B4C9;" d="M585.571,400.19l-17.826-128.24c-1.928-13.867-12.915-24.122-25.845-24.122H414.337h-66.275
						H220.499c-12.931,0-23.918,10.255-25.845,24.122l-17.826,128.24c-2.383,17.146,9.858,32.574,25.846,32.574h139.103h78.846
						h139.103C575.713,432.764,587.954,417.336,585.571,400.19z"/>
					<g>
						<path style="fill:#EED0DB;" d="M157.411,349.248C160.827,347.997,159.224,348.527,157.411,349.248L157.411,349.248z"/>
						<path style="fill:#EED0DB;" d="M570.516,291.878c-4.724,3.648-9.574,7.102-14.55,10.333
							c-5.914,3.84-11.996,7.375-18.212,10.603c-0.197,0.102-0.894,0.466-1.394,0.73c-0.253,0.12-0.49,0.231-0.558,0.26
							c-1.533,0.64-3.066,1.279-4.609,1.892c-3.316,1.316-6.661,2.546-10.031,3.689c-6.548,2.221-13.124,4.429-19.768,6.287
							c-3.222,0.901-6.463,1.723-9.719,2.466c-0.446,0.102-1.477,0.474-2.489,0.771c-0.225,0.022-0.63,0.067-1.289,0.148
							c-0.93,0.113-1.859,0.227-2.789,0.331c-14.474,1.62-29.464,2.462-44.002,1.865c-4.233-0.174-8.442-0.556-12.653-1.019
							c-0.915-0.292-2.098-0.3-2.996-0.464c-2.217-0.405-4.44-0.84-6.634-1.373c-9.102-2.212-17.969-6.246-26.542-10.158
							c2.07,0.947,4.139,1.895,6.209,2.842c-20.214-9.354-40.796-17.864-61.539-25.757c-18.957-7.214-38.212-13.55-57.965-17.644
							c-27.366-5.671-56.769-8.318-84.681-3.211l-8.918,64.157c7.458-2.086,15.037-3.71,22.6-4.973
							c15.898-1.93,31.846-1.607,47.736,0.39c23.805,3.891,47.052,11.055,69.866,19.296c11.896,4.297,23.683,8.927,35.489,13.503
							c11.968,4.638,24.289,7.95,36.856,10.076c2.858,0.484,5.729,0.853,8.594,1.289c0.274,0.056,0.693,0.139,1.319,0.258
							c4.294,0.817,8.668,1.347,13.008,1.842c6.725,0.767,13.493,1.066,20.253,0.968c13.372-0.193,26.938-1.6,39.904-5.195
							c22.635-6.277,45.015-14.809,65.123-27.843c10.063-6.522,19.957-13.18,29.321-20.828L570.516,291.878z M427.581,330.141
							c-3.679-0.414-0.677-0.163,0.678,0.073C428.033,330.188,427.807,330.166,427.581,330.141z M486.772,329.194
							c0.074,0.059,1.443-0.111,2.18-0.22C487.977,329.25,487.066,329.429,486.772,329.194z"/>
					</g>
				</g>
				<path style="fill:#FFFFFF;stroke:#000000;stroke-miterlimit:10;" d="M543.48,149.311c-22.78-16.629-48.789-6.396-55.611-2.985
					c-4.567,2.283-12.682,4.874-17.68,4.874c-4.999,0-13.113-2.59-17.681-4.874c-6.822-3.411-32.831-13.644-55.611,2.985
					c-22.78,16.629-26.68,52.445-9.199,86.981c14.297,28.246,15.35,57.561,16.202,77.601c0.853,20.04,5.969,57.987,25.583,55.003
					c19.613-2.985,22.598-29.846,24.304-57.135c1.197-19.147,10.069-29.815,16.401-29.815c6.332,0,15.205,10.669,16.401,29.815
					c1.706,27.288,4.69,54.15,24.304,57.135c19.613,2.985,24.73-34.963,25.583-55.003c0.853-20.04,1.905-49.355,16.202-77.601
					C570.16,201.756,566.26,165.94,543.48,149.311z"/>
				<g>
					<polygon style="fill:#738BEF;stroke:#000000;stroke-miterlimit:10;" points="222.399,244.222 237.643,333.442 260.591,333.442 
						281.454,333.442 304.402,333.442 319.646,244.222 					"/>
					<path style="fill:#738BEF;stroke:#000000;stroke-miterlimit:10;" d="M314.438,241.884h-86.831
						c-3.682,0-6.667-2.985-6.667-6.667v-6.04c0-3.682,2.985-6.667,6.667-6.667h86.831c3.682,0,6.667,2.985,6.667,6.667v6.04
						C321.105,238.899,318.12,241.884,314.438,241.884z"/>
					<path style="fill:#738BEF;stroke:#000000;stroke-miterlimit:10;" d="M330.136,247.846H211.909
						c-3.293,0-5.962-2.669-5.962-5.962l0,0c0-3.293,2.669-5.962,5.962-5.962h118.228c3.293,0,5.962,2.669,5.962,5.962l0,0
						C336.099,245.177,333.429,247.846,330.136,247.846z"/>
					<g>
						<path style="fill:#738BEF;stroke:#000000;stroke-miterlimit:10;" d="M309.93,323.657h-77.814
							c-1.413,0-2.558-1.145-2.558-2.558l0,0c0-1.413,1.145-2.558,2.558-2.558h77.814c1.413,0,2.558,1.145,2.558,2.558l0,0
							C312.488,322.512,311.342,323.657,309.93,323.657z"/>
						<path style="fill:#738BEF;stroke:#000000;stroke-miterlimit:10;" d="M311.682,310.738h-81.318
							c-1.413,0-2.558-1.145-2.558-2.558l0,0c0-1.413,1.145-2.558,2.558-2.558h81.318c1.413,0,2.558,1.145,2.558,2.558l0,0
							C314.24,309.593,313.095,310.738,311.682,310.738z"/>
						<path style="fill:#738BEF;stroke:#000000;stroke-miterlimit:10;" d="M313.611,297.819h-85.176
							c-1.413,0-2.558-1.145-2.558-2.558l0,0c0-1.413,1.145-2.558,2.558-2.558h85.176c1.413,0,2.558,1.145,2.558,2.558l0,0
							C316.169,296.673,315.023,297.819,313.611,297.819z"/>
						<path style="fill:#738BEF;stroke:#000000;stroke-miterlimit:10;" d="M315.831,284.9h-89.616c-1.413,0-2.558-1.145-2.558-2.558
							l0,0c0-1.413,1.145-2.558,2.558-2.558h89.616c1.413,0,2.558,1.145,2.558,2.558l0,0
							C318.389,283.754,317.243,284.9,315.831,284.9z"/>
						<path style="fill:#738BEF;stroke:#000000;stroke-miterlimit:10;" d="M318.815,271.98H223.23c-1.413,0-2.558-1.145-2.558-2.558
							l0,0c0-1.413,1.145-2.558,2.558-2.558h95.586c1.413,0,2.558,1.145,2.558,2.558l0,0
							C321.374,270.835,320.228,271.98,318.815,271.98z"/>
						<path style="fill:#738BEF;stroke:#000000;stroke-miterlimit:10;" d="M321.045,259.061H221.001
							c-1.413,0-2.558-1.145-2.558-2.558l0,0c0-1.413,1.145-2.558,2.558-2.558h100.044c1.413,0,2.558,1.145,2.558,2.558l0,0
							C323.603,257.916,322.457,259.061,321.045,259.061z"/>
					</g>
				</g>
				<g>
					<polygon style="fill:#FFFFFF;" points="584.958,172.967 590.285,183.39 600.394,189.292 589.971,194.619 584.069,204.728 
						578.742,194.305 568.633,188.403 579.056,183.076 					"/>
					<polygon style="fill:#FFFFFF;" points="375.389,231.426 378.99,238.471 385.822,242.461 378.777,246.062 374.788,252.894 
						371.187,245.849 364.354,241.86 371.4,238.259 					"/>
					<polygon style="fill:#FFFFFF;" points="572.927,157.43 575.555,162.572 580.541,165.483 575.4,168.111 572.489,173.097 
						569.861,167.956 564.875,165.044 570.016,162.417 					"/>
				</g>
				<g>
					<path style="fill:#FFFFFF;stroke:#92A7FF;stroke-miterlimit:10;" d="M390.56,143.135c-0.115,2.613-2.327,4.638-4.941,4.523
						c-2.613-0.115-4.638-2.327-4.523-4.941c0.115-2.613,2.328-4.638,4.941-4.523C388.651,138.309,390.676,140.521,390.56,143.135z"
						/>
					<g>
						<path style="fill:#FFFFFF;stroke:#92A7FF;stroke-miterlimit:10;" d="M407.589,132.56c-1.329-0.059-2.454,0.971-2.513,2.301
							c-0.059,1.329,0.971,2.454,2.301,2.513c1.329,0.059,2.454-0.971,2.513-2.3C409.948,133.744,408.918,132.618,407.589,132.56z"
							/>
						<path style="fill:#FFFFFF;stroke:#92A7FF;stroke-miterlimit:10;" d="M423.845,148.873c-3.506-0.155-6.474,2.562-6.629,6.068
							c-0.155,3.506,2.562,6.474,6.069,6.629c3.506,0.155,6.474-2.562,6.629-6.068C430.068,151.996,427.351,149.028,423.845,148.873
							z"/>
					</g>
					<path style="fill:#FFFFFF;stroke:#92A7FF;stroke-linecap:round;stroke-linejoin:round;stroke-miterlimit:10;" d="
						M434.067,137.333c-1.81-0.08-3.408,0.903-4.232,2.386c-0.416-1.507-1.747-2.65-3.393-2.723
						c-2.044-0.09-3.775,1.494-3.866,3.539s1.494,3.775,3.539,3.865c0.011,0.001,0.02-0.002,0.031-0.002
						c-0.015,0.102-0.04,0.201-0.045,0.306c-0.077,1.736,1.269,3.206,3.005,3.283c1.299,0.057,2.448-0.682,2.977-1.784
						c0.489,0.205,1.015,0.343,1.575,0.368c2.551,0.113,4.711-1.864,4.823-4.415C438.595,139.605,436.618,137.445,434.067,137.333z"
						/>
					<path style="fill:#FFFFFF;stroke:#92A7FF;stroke-miterlimit:10;" d="M427.185,127.026c-0.078,1.766-1.573,3.135-3.34,3.057
						c-1.766-0.078-3.135-1.573-3.057-3.34c0.078-1.766,1.573-3.135,3.34-3.057C425.894,123.765,427.263,125.26,427.185,127.026z"/>
					<circle style="fill:#FFFFFF;stroke:#92A7FF;stroke-miterlimit:10;" cx="452.682" cy="146.221" r="9.382"/>
					<path style="fill:#FFFFFF;stroke:#92A7FF;stroke-miterlimit:10;" d="M443.33,165.393c-0.071,1.619-1.442,2.873-3.061,2.802
						c-1.619-0.071-2.873-1.442-2.802-3.061c0.071-1.619,1.442-2.873,3.061-2.802S443.402,163.774,443.33,165.393z"/>
					<path style="fill:#FFFFFF;stroke:#92A7FF;stroke-miterlimit:10;" d="M416.928,178.045c1.187-5.312-1.828-10.577-6.835-12.344
						c0.534-0.65,0.934-1.425,1.13-2.303c0.181-0.811,0.17-1.619,0.006-2.382c2.319-1.254,4.106-3.46,4.726-6.235
						c1.135-5.084-2.065-10.125-7.149-11.26c-3.151-0.704-6.284,0.261-8.483,2.305c-0.141-0.05-0.277-0.108-0.427-0.142
						c-2.021-0.451-4.022,0.81-4.497,2.819c-0.602-0.251-1.229-0.463-1.888-0.61c-6.07-1.356-12.09,2.466-13.446,8.536
						c-0.605,2.709-0.174,5.405,1.023,7.684c-3.022,0.82-5.502,3.241-6.232,6.51c-0.508,2.272-0.071,4.531,1.04,6.381
						c-1.639,0.671-2.935,2.103-3.351,3.963c-0.674,3.02,1.227,6.014,4.246,6.689c0.461,0.103,0.92,0.139,1.372,0.127
						c0.297,5.945,4.495,11.206,10.587,12.566c7.317,1.634,14.573-2.972,16.207-10.289c0.284-1.27,0.368-2.536,0.294-3.773
						C410.624,186.949,415.723,183.436,416.928,178.045z"/>
					<path style="fill:#FFFFFF;stroke:#92A7FF;stroke-miterlimit:10;" d="M418.769,189.787c-0.068,1.546-1.376,2.743-2.922,2.675
						c-1.546-0.068-2.743-1.376-2.675-2.922c0.068-1.546,1.376-2.743,2.922-2.675C417.64,186.933,418.838,188.241,418.769,189.787z"
						/>
					<path style="fill:#FFFFFF;stroke:#92A7FF;stroke-miterlimit:10;" d="M372.883,198.576c-0.118,2.678-2.385,4.753-5.063,4.635
						c-2.678-0.118-4.753-2.385-4.635-5.063c0.118-2.678,2.385-4.753,5.063-4.635C370.927,193.631,373.002,195.898,372.883,198.576z
						"/>
				</g>
			</g>
			
				<line style="fill:none;stroke:#010001;stroke-linecap:round;stroke-linejoin:round;stroke-miterlimit:10;" x1="26.562" y1="433.251" x2="719.214" y2="433.251"/>
			<g>
				<g>
					<path style="fill:#92A7FF;stroke:#3B55F1;stroke-linecap:round;stroke-linejoin:round;stroke-miterlimit:10;" d="
						M315.152,347.656c0,0,79.352,15.553,52.372,89.826C367.525,437.483,288.808,433.039,315.152,347.656z"/>
					<g>
						
							<line style="fill:none;stroke:#3B55F1;stroke-width:0.75;stroke-linecap:round;stroke-linejoin:round;stroke-miterlimit:10;" x1="315.152" y1="347.656" x2="367.525" y2="437.483"/>
						
							<polyline style="fill:none;stroke:#3B55F1;stroke-width:0.75;stroke-linecap:round;stroke-linejoin:round;stroke-miterlimit:10;" points="
							310.893,365.728 325.689,365.728 330.588,352.613 						"/>
						
							<polyline style="fill:none;stroke:#3B55F1;stroke-width:0.75;stroke-linecap:round;stroke-linejoin:round;stroke-miterlimit:10;" points="
							309.765,380.139 332.41,377.256 343.525,359.171 						"/>
						
							<polyline style="fill:none;stroke:#3B55F1;stroke-width:0.75;stroke-linecap:round;stroke-linejoin:round;stroke-miterlimit:10;" points="
							311.299,394.137 340.527,391.178 356.979,369.655 						"/>
						
							<polyline style="fill:none;stroke:#3B55F1;stroke-width:0.75;stroke-linecap:round;stroke-linejoin:round;stroke-miterlimit:10;" points="
							316.887,408.653 348.567,404.968 366.752,382.637 						"/>
						
							<polyline style="fill:none;stroke:#3B55F1;stroke-width:0.75;stroke-linecap:round;stroke-linejoin:round;stroke-miterlimit:10;" points="
							328.275,422.119 356.979,419.395 372.04,397.393 						"/>
						
							<polyline style="fill:none;stroke:#3B55F1;stroke-width:0.75;stroke-linecap:round;stroke-linejoin:round;stroke-miterlimit:10;" points="
							344.615,431.828 364.495,432.287 372.611,416.941 						"/>
					</g>
				</g>
				<g>
					<path style="fill:#92A7FF;stroke:#3B55F1;stroke-linecap:round;stroke-linejoin:round;stroke-miterlimit:10;" d="
						M527.887,377.497c0,0,52.991,10.386,34.974,59.986C562.861,437.483,510.294,434.515,527.887,377.497z"/>
					<g>
						
							<line style="fill:none;stroke:#3B55F1;stroke-width:0.75;stroke-linecap:round;stroke-linejoin:round;stroke-miterlimit:10;" x1="527.887" y1="377.497" x2="562.861" y2="437.483"/>
						
							<polyline style="fill:none;stroke:#3B55F1;stroke-width:0.75;stroke-linecap:round;stroke-linejoin:round;stroke-miterlimit:10;" points="
							525.043,389.565 534.923,389.565 538.195,380.807 						"/>
						
							<polyline style="fill:none;stroke:#3B55F1;stroke-width:0.75;stroke-linecap:round;stroke-linejoin:round;stroke-miterlimit:10;" points="
							524.289,399.189 539.412,397.264 546.834,385.186 						"/>
						
							<polyline style="fill:none;stroke:#3B55F1;stroke-width:0.75;stroke-linecap:round;stroke-linejoin:round;stroke-miterlimit:10;" points="
							525.314,408.537 544.832,406.561 555.819,392.188 						"/>
						
							<polyline style="fill:none;stroke:#3B55F1;stroke-width:0.75;stroke-linecap:round;stroke-linejoin:round;stroke-miterlimit:10;" points="
							529.045,418.23 550.201,415.77 562.345,400.857 						"/>
						
							<polyline style="fill:none;stroke:#3B55F1;stroke-width:0.75;stroke-linecap:round;stroke-linejoin:round;stroke-miterlimit:10;" points="
							536.65,427.223 555.819,425.404 565.877,410.711 						"/>
						
							<polyline style="fill:none;stroke:#3B55F1;stroke-width:0.75;stroke-linecap:round;stroke-linejoin:round;stroke-miterlimit:10;" points="
							547.562,433.706 560.838,434.013 566.258,423.765 						"/>
					</g>
				</g>
				<g>
					<path style="fill:#92A7FF;stroke:#3B55F1;stroke-linecap:round;stroke-linejoin:round;stroke-miterlimit:10;" d="
						M412.49,316.669c0,0,47.436,88.327-44.998,120.813C367.491,437.483,309.899,358.494,412.49,316.669z"/>
					<g>
						
							<line style="fill:none;stroke:#3B55F1;stroke-width:0.75;stroke-linecap:round;stroke-linejoin:round;stroke-miterlimit:10;" x1="412.49" y1="316.669" x2="367.491" y2="437.483"/>
						
							<polyline style="fill:none;stroke:#3B55F1;stroke-width:0.75;stroke-linecap:round;stroke-linejoin:round;stroke-miterlimit:10;" points="
							391.811,326.785 403.437,340.975 419.865,335.369 						"/>
						
							<polyline style="fill:none;stroke:#3B55F1;stroke-width:0.75;stroke-linecap:round;stroke-linejoin:round;stroke-miterlimit:10;" points="
							377.102,337.026 397.662,356.48 423.741,352.928 						"/>
						
							<polyline style="fill:none;stroke:#3B55F1;stroke-width:0.75;stroke-linecap:round;stroke-linejoin:round;stroke-miterlimit:10;" points="
							364.883,349.498 390.688,375.204 424.258,374.07 						"/>
						
							<polyline style="fill:none;stroke:#3B55F1;stroke-width:0.75;stroke-linecap:round;stroke-linejoin:round;stroke-miterlimit:10;" points="
							355.352,366.263 383.78,393.752 419.486,393.645 						"/>
						
							<polyline style="fill:none;stroke:#3B55F1;stroke-width:0.75;stroke-linecap:round;stroke-linejoin:round;stroke-miterlimit:10;" points="
							351.385,387.766 376.552,413.155 409.49,410.312 						"/>
						
							<polyline style="fill:none;stroke:#3B55F1;stroke-width:0.75;stroke-linecap:round;stroke-linejoin:round;stroke-miterlimit:10;" points="
							354.913,411.066 370.094,430.494 391.189,426.22 						"/>
					</g>
				</g>
			</g>
		</g>
		<g>
			<g>
				<g>
					<g>
						<g>
							<polygon style="fill:#87524E;" points="149.363,444.951 147.372,424.096 165.251,424.096 167.33,446.875 							"/>
							<polygon style="fill:#010001;" points="146.819,439.198 168.796,438.858 170.101,445.557 185.611,456.541 144.89,456.375 
															"/>
						</g>
						<g>
							<path style="fill:#3B55F1;" d="M139.898,427.786l33.124,0.775c0,0-7.84-93.434-7.568-111.833c0.272-18.398,0-23.225,0-23.225
								l-10.402-4.953l-33.82,10.768L139.898,427.786z"/>
							<polyline style="fill:none;stroke:#12120E;stroke-linecap:round;stroke-miterlimit:10;" points="121.232,299.317 
								139.898,427.786 173.022,428.561 							"/>
						</g>
					</g>
					<g>
						<g>
							<polygon style="fill:#87524E;" points="72.142,403.239 58.908,421.03 72.463,430.35 88.906,411.341 							"/>
							<polygon style="fill:#010001;" points="60.498,414.697 77.667,428.644 75.35,433.959 81.887,451.806 48.454,428.559 							
								"/>
						</g>
						<g>
							<path style="fill:#3B55F1;" d="M132.325,325.253c0,0,6.551,19.384-7.806,45.196c-14.358,25.812-38.42,47.308-38.42,47.308
								l-24.473-18.172c0,0,24.547-37.09,31.26-64.924c7.329-30.388,5.857-39.404,5.857-39.404l33.122,11.171L132.325,325.253z"/>
							<path style="fill:none;stroke:#12120E;stroke-linecap:round;stroke-miterlimit:10;" d="M61.089,399.187l25.01,18.57
								c0,0,24.649-21.178,38.42-47.308c13.406-25.436,14.82-70.046,14.82-70.046"/>
						</g>
					</g>
				</g>
				<g>
					<path style="fill:#3B55F1;stroke:#12120E;stroke-linecap:round;stroke-linejoin:round;stroke-miterlimit:10;" d="
						M150.62,201.739c0,0,14.088,10.309,15.581,20.755c1.492,10.446,2.599,91.671,2.599,91.671l-75.695-0.013
						c0,0-4.312-59.626,8.489-81.612c12.801-21.985,34.917-31.861,34.917-31.861L150.62,201.739z"/>
					<g>
						<path style="fill:#87524E;" d="M82.865,265.671l17.461-15.449l0.862-1.495c-0.105-0.189-0.161-0.296-0.161-0.296l8.354-13.359
							l-17.743-14.87c-28.375,19.712-15.989,37.415-9.594,44.61C82.288,265.086,82.568,265.375,82.865,265.671z"/>
						<g>
							<path style="fill:#3B55F1;" d="M126.324,235.689l-14.06,14.533l-34.206-22.311c0,0,5.745-8.382,17.795-15.966
								c25.433-16.008,41.03-13.967,41.03-13.967l3.819,11.397L126.324,235.689z"/>
							<path style="fill:none;stroke:#12120E;stroke-linecap:round;stroke-linejoin:round;stroke-miterlimit:10;" d="
								M136.883,197.977c0,0-15.597-2.04-41.03,13.967c-12.05,7.584-17.795,15.966-17.795,15.966l34.206,22.311l14.06-14.533"/>
							
								<line style="fill:none;stroke:#12120E;stroke-linecap:round;stroke-linejoin:round;stroke-miterlimit:10;" x1="84.168" y1="221.048" x2="118.551" y2="243.723"/>
						</g>
					</g>
					<g>
						<path style="fill:#3B55F1;stroke:#12120E;stroke-linecap:round;stroke-linejoin:round;stroke-miterlimit:10;" d="
							M128.885,198.414l14.078,27.544l9.21-22.59c0,0-2.654-4.038-9.53-4.954C135.768,197.498,133.228,197.567,128.885,198.414z"/>
						<path style="fill:#87524E;stroke:#12120E;stroke-linecap:round;stroke-linejoin:round;stroke-miterlimit:10;" d="
							M141.924,215.006l7.164-14.371c-1.509-0.936-3.614-1.843-6.445-2.22c-4.452-0.594-7.085-0.771-9.568-0.595L141.924,215.006z"
							/>
					</g>
				</g>
				<path style="fill:#FFFFFF;stroke:#000000;stroke-miterlimit:10;" d="M218.64,211.832c-19.734-5.042-29.636,3.635-35.05,5.896
					c-2.454,1.025-5.101,1.342-7.49,1.401c-2.389,0.059-4.888-0.13-7.55-1.028c-5.56-1.875-15.839-10.167-35.299-4.154
					c-19.461,6.013-23.334,22.199-22.811,43.303c0.523,21.105,16.903,53.13,16.903,53.13l38.406-0.951l25.16-0.623l38.406-0.951
					c0,0,14.775-32.797,14.252-53.902C243.044,232.848,238.374,216.874,218.64,211.832z"/>
				<g>
					<g>
						<g>
							<path style="fill:#87524E;" d="M138.147,187.895c0.016-0.282,0.04-0.566,0.079-0.851l1.399-10.131
								c0.683-4.947,4.797-8.503,9.142-7.903l6.535,0.903c4.345,0.6,7.341,5.139,6.658,10.085l-1.399,10.131
								c-0.683,4.947-4.797,8.503-9.142,7.903l-3.307-0.457l-0.727,3.986c-0.312,1.711-1.952,2.845-3.663,2.533l-5.247-0.957
								c-1.711-0.312-2.845-1.952-2.533-3.663C135.943,199.474,138.036,188.184,138.147,187.895z"/>
							<g>
								<path style="fill:#12120E;" d="M139.702,182.074c0,0,2.657-8.331,2.881-7.015c0.319,1.877-1.124,11.825,0.687,12.967
									c2.396,1.512,3.941-2.733,9.113-2.197c5.173,0.535,8.393,3.196,8.503,5.334c0.068,1.32,0.211,4.984-4.38,6.96
									c-3.924,1.689-9.126,0.279-9.126,0.279s-4.877-1.287-6.593-4.588C139.001,190.379,139.702,182.074,139.702,182.074z"/>
								<g>
									<g>
										<path style="fill:#020202;" d="M148.425,181.501c-0.112,0.814,0.456,1.564,1.27,1.677c0.814,0.112,1.564-0.456,1.677-1.27
											c0.112-0.813-0.456-1.564-1.27-1.677C149.288,180.119,148.538,180.688,148.425,181.501z"/>
										<path style="fill:#020202;" d="M158.099,182.617c-0.096,0.695,0.389,1.335,1.084,1.431
											c0.695,0.096,1.335-0.389,1.431-1.084c0.096-0.695-0.389-1.335-1.084-1.431
											C158.836,181.438,158.195,181.923,158.099,182.617z"/>
									</g>
									<g>
										<path style="fill:#FFFFFF;" d="M155.86,188.45c0,0-1.038,2.055-2.624,1.987c-1.586-0.068-2.573-1.972-2.47-3.337
											L155.86,188.45z"/>
									</g>
									<g>
										<g>
											<path style="fill:#010001;" d="M155.235,181.272c0.281,1.331,0.712,2.621,1.275,3.859
												c0.108-0.188,0.216-0.376,0.324-0.564c-0.55-0.022-1.099-0.045-1.649-0.068c-0.483-0.02-0.482,0.73,0,0.75
												c0.55,0.023,1.1,0.046,1.649,0.068c0.309,0.013,0.434-0.322,0.324-0.564c-0.535-1.178-0.932-2.415-1.199-3.68
												C155.859,180.6,155.136,180.8,155.235,181.272L155.235,181.272z"/>
										</g>
									</g>
									<g>
										<g>
											<path style="fill:#010001;" d="M148.361,179.944c0.25-0.086,0.504-0.159,0.762-0.217
												c0.126-0.028,0.254-0.054,0.382-0.075c0.063-0.011,0.128-0.024,0.192-0.03c-0.094,0.008-0.003,0,0.019-0.002
												c0.04-0.005,0.079-0.009,0.119-0.014c0.102-0.011,0.19-0.034,0.265-0.11c0.065-0.065,0.114-0.172,0.11-0.265
												c-0.008-0.185-0.166-0.398-0.375-0.375c-0.57,0.062-1.131,0.178-1.674,0.365c-0.185,0.064-0.327,0.26-0.262,0.461
												C147.96,179.866,148.163,180.013,148.361,179.944L148.361,179.944z"/>
										</g>
									</g>
									<g>
										<g>
											<path style="fill:#010001;" d="M158.851,180.751c0.51,0.097,1.014,0.227,1.507,0.388
												c0.187,0.061,0.418-0.071,0.461-0.262c0.047-0.206-0.062-0.396-0.262-0.461c-0.494-0.161-0.997-0.291-1.508-0.388
												c-0.192-0.036-0.414,0.053-0.461,0.262C158.547,180.474,158.645,180.712,158.851,180.751L158.851,180.751z"/>
										</g>
									</g>
								</g>
							</g>
							<path style="fill:#12120E;" d="M140.391,184.002l2.302-7.768c0,0,22.357,8.555,25.788-3.924
								c2.18-7.927-7.262-13.246-15.46-10.261c0,0-14.285-3.348-20.386,4.733c-6.101,8.081-3.107,15.543,4.591,25.825l1.14-5.996
								L140.391,184.002z"/>
							<g>
								<path style="fill:#87524E;" d="M130.583,183.323c-0.305,2.638,1.603,5.026,4.263,5.334c2.66,0.308,5.063-1.581,5.369-4.219
									c0.306-2.638-1.603-5.026-4.262-5.334C133.292,178.796,130.888,180.685,130.583,183.323z"/>
								<g>
									<g>
										<path style="fill:#010001;" d="M138.246,184.918c0.219-1.21-0.171-2.609-1.272-3.264
											c-0.563-0.335-1.229-0.448-1.875-0.455c-0.483-0.006-0.483,0.744,0,0.75c0.313,0.004,0.53,0.021,0.813,0.087
											c0.104,0.024,0.208,0.054,0.309,0.089c0.021,0.007,0.17,0.066,0.097,0.035c0.058,0.025,0.116,0.053,0.172,0.082
											c0.089,0.047,0.172,0.101,0.255,0.156c0.016,0.011,0.031,0.023,0.047,0.034c-0.076-0.055,0,0,0.013,0.012
											c0.035,0.03,0.07,0.06,0.103,0.092c0.065,0.062,0.122,0.13,0.182,0.196c0.058,0.064-0.035-0.049-0.002-0.004
											c0.013,0.017,0.025,0.035,0.038,0.052c0.029,0.042,0.057,0.084,0.083,0.128c0.039,0.064,0.074,0.13,0.107,0.197
											c0.017,0.034,0.057,0.135,0.022,0.044c0.018,0.045,0.035,0.089,0.051,0.135c0.051,0.145,0.089,0.294,0.117,0.444
											c0.007,0.036,0.012,0.072,0.018,0.108c0.017,0.106-0.006-0.077,0.003,0.026c0.007,0.073,0.014,0.146,0.018,0.22
											c0.006,0.115,0.007,0.231,0.003,0.347c-0.003,0.094-0.012,0.187-0.021,0.281c-0.011,0.108,0.016-0.101,0.002-0.018
											c-0.001,0.009-0.003,0.019-0.005,0.029c-0.036,0.199,0.054,0.404,0.262,0.461
											C137.967,185.23,138.21,185.119,138.246,184.918L138.246,184.918z"/>
									</g>
								</g>
							</g>
						</g>
					</g>
				</g>
				<g>
					<g>
						<path style="fill:#87524E;" d="M139.246,288.596c-0.906-0.906-5.79-5.023-5.79-5.023s5.629,2.579,6.85,1.286
							c0.867-0.919,0.919-2.578-4.057-5.443c0,0-12.132-7.294-13.134-8.121c-12.395-11.247-20.718-20.398-21.89-22.504
							l-10.088-0.714l-15.286-10.912c-5.693,12.422,1.717,22.61,6.195,27.647c4.299,4.837,17.337,13.366,25.427,18.442l0,0
							c0,0,21.492,17.866,24.3,18.613c3.082,0.819,2.614-1.918,1.072-3.538c1.066,0.786,2.788,1.795,3.624,0.84
							c1.417-1.619-0.947-3.366-2.498-4.457c0,0,3.216,2.272,4.46,1.199c1.759-1.517-1.114-3.746-2.342-4.517
							c0,0,2.934,1.876,4.104,1.026C141.737,291.297,140.152,289.502,139.246,288.596z"/>
						<g>
							
								<line style="fill:none;stroke:#12120E;stroke-linecap:round;stroke-linejoin:round;stroke-miterlimit:10;" x1="97.234" y1="245.092" x2="105.955" y2="254.482"/>
							<g>
								
									<line style="fill:none;stroke:#12120E;stroke-linecap:round;stroke-miterlimit:10;" x1="132.76" y1="297.93" x2="126.324" y2="293.437"/>
								
									<line style="fill:none;stroke:#12120E;stroke-linecap:round;stroke-miterlimit:10;" x1="134.778" y1="295.541" x2="127.892" y2="290.48"/>
								<path style="fill:none;stroke:#12120E;stroke-linecap:round;stroke-miterlimit:10;" d="M137.015,292.034
									c-0.166,0.008-6.856-4.54-6.856-4.54"/>
							</g>
						</g>
					</g>
					<g>
						<g>
							<path style="fill:#87524E;" d="M228.78,218.834c1.281,0.112,2.43-1.063,2.567-2.624c0.137-1.561-0.791-2.918-2.072-3.03
								c-1.281-0.112-2.43,1.063-2.567,2.624C226.571,217.365,227.499,218.721,228.78,218.834z"/>
							<path style="fill:#87524E;" d="M232.338,221.568c1.128,0.099,2.116-0.656,2.206-1.687c0.09-1.03-0.751-1.946-1.88-2.044
								c-1.128-0.099-2.116,0.656-2.206,1.687C230.368,220.554,231.209,221.469,232.338,221.568z"/>
							<path style="fill:#87524E;" d="M224.368,215.996c1.573,0.138,2.961-1.026,3.098-2.599c0.138-1.573-1.026-2.96-2.599-3.098
								c-1.573-0.138-2.96,1.026-3.098,2.6C221.631,214.471,222.794,215.858,224.368,215.996z"/>
							<path style="fill:#87524E;" d="M219.527,213.428c1.33,0.117,2.503-0.867,2.619-2.197c0.116-1.33-0.867-2.503-2.197-2.619
								c-1.33-0.116-2.503,0.867-2.619,2.197C217.214,212.139,218.197,213.312,219.527,213.428z"/>
						</g>
						<g>
							<path style="fill:none;stroke:#0F110E;stroke-linecap:round;stroke-linejoin:round;stroke-miterlimit:10;" d="
								M218.072,212.935c0,0,2.652,1.192,3.904-1.473"/>
							<path style="fill:none;stroke:#0F110E;stroke-linecap:round;stroke-linejoin:round;stroke-miterlimit:10;" d="
								M221.673,211.995c0,0-0.543,2.096,1.12,3.353c1.663,1.256,3.912,0.309,4.466-1.109"/>
							<path style="fill:none;stroke:#0F110E;stroke-linecap:round;stroke-linejoin:round;stroke-miterlimit:10;" d="
								M226.826,214.979c0,0-0.604,2.467,0.951,3.472c1.554,1.005,3.396-0.042,3.581-2.517"/>
						</g>
					</g>
				</g>
			</g>
			<g>
				<g>
					<g>
						<g>
							<g>
								<g>
									<polygon style="fill:#FCD7C8;" points="593.175,411.52 586.071,440.481 604.914,442.209 611.525,413.706 									"/>
									<g>
										<polygon points="582.218,434.772 611.973,436.556 608.357,457.758 557.633,457.508 576.958,446.609 										"/>
									</g>
								</g>
								<g>
									<polygon style="fill:#FCD7C8;" points="645.843,412.089 645.557,441.907 664.296,439.275 664.205,410.016 									"/>
									<g>
										<polygon points="639.757,435.782 668.735,436.427 670.919,457.758 620.195,457.508 639.52,446.609 										"/>
									</g>
								</g>
							</g>
							<g>
								<g>
									<g>
										<polygon style="fill:#3B55F1;" points="636.497,306.788 617.499,421.917 577.72,418.714 605.107,281.327 641.66,281.327 
																					"/>
										<polyline style="fill:none;stroke:#010001;stroke-linecap:round;stroke-miterlimit:10;" points="636.344,307.629 
											617.499,421.917 577.72,418.714 										"/>
									</g>
									<g>
										<polyline style="fill:none;stroke:#3A4A36;stroke-width:0.25;stroke-miterlimit:10;" points="624.44,302.956 
											630.635,303.492 634.313,352.96 										"/>
										<polygon style="fill:#3B55F1;" points="624.44,302.956 630.635,303.492 636.344,420.002 677.6,419.435 660.356,291.139 
											658.505,279.008 616.08,267.417 										"/>
										<polyline style="fill:none;stroke:#010001;stroke-linecap:round;stroke-miterlimit:10;" points="624.44,302.956 
											630.635,303.492 636.344,420.002 677.6,419.435 										"/>
									</g>
								</g>
							</g>
						</g>
					</g>
				</g>
				<g>
					<g>
						<g>
							<path style="fill:#FFFFFF;" d="M655.425,206.79c-15.582-11.371-23.172-9.447-23.172-9.447
								c-9.808-1.368-26.071,12.774-28.48,14.58c-2.409,1.807-12.286,23.34-14.771,32.895c-2.484,9.555,5.42,22.598,5.42,22.598
								s77.016,2.176,79.726-3.112C676.86,259.016,670.819,218.023,655.425,206.79z"/>
							<g>
								<g>
									<path style="fill:#F2B4C9;" d="M659.735,292.38c1.174-6.761,0.665-17.445,0.665-24.963
										c0-37.531-8.851-68.634-28.383-69.527c-11.953-0.546-27.702,30.072-29.916,67.479c-0.444,7.505-1.625,19.823-0.45,26.583
										L659.735,292.38z"/>
								</g>
							</g>
						</g>
						<g>
							<path style="fill:#FFFFFF;" d="M604.095,233.319c-11.541,36.368-27.769,147.973-27.769,147.973l42.187,4.489l4.684-165.658
								l1.266-21.145C624.463,198.978,612.341,207.333,604.095,233.319z"/>
							<g>
								<path style="fill:none;stroke:#12120E;stroke-linecap:round;stroke-miterlimit:10;" d="M622.202,202.04
									c-1.337,3.743-6.296,18.117-6.296,18.117l3.076,0.715l0,0.137l-4.75,3.266l5.937,55.269"/>
								
									<line style="fill:none;stroke:#12120E;stroke-linecap:round;stroke-miterlimit:10;" x1="594.423" y1="298.126" x2="612.341" y2="296.62"/>
								<path style="fill:none;stroke:#12120E;stroke-linecap:round;stroke-miterlimit:10;" d="M604.095,233.319
									c-11.541,36.368-27.769,147.973-27.769,147.973l42.187,4.489"/>
							</g>
						</g>
						<g>
							<path style="fill:#FFFFFF;" d="M661.148,233.319c11.541,36.368,29.414,150.732,29.414,150.732l-43.833,1.731l-4.684-165.658
								l-1.266-21.145C640.78,198.978,652.901,207.333,661.148,233.319z"/>
							<g>
								<path style="fill:none;stroke:#12120E;stroke-linecap:round;stroke-miterlimit:10;" d="M643.04,202.04
									c1.337,3.743,6.296,18.117,6.296,18.117l-3.076,0.715l0,0.137l4.75,3.266l-4.959,58.922"/>
								
									<line style="fill:none;stroke:#12120E;stroke-linecap:round;stroke-miterlimit:10;" x1="670.819" y1="298.126" x2="652.901" y2="296.62"/>
								<path style="fill:none;stroke:#12120E;stroke-linecap:round;stroke-miterlimit:10;" d="M661.148,233.319
									c11.541,36.368,29.414,150.732,29.414,150.732l-43.833,1.731"/>
							</g>
						</g>
					</g>
					<g>
						<g>
							<path style="fill:#FCD7C8;" d="M603.382,252.729c0,0,7.867-11.827,10.239-11.936c2.371-0.109-0.19,4.252-0.19,4.252
								s7.039-3.06,9.713-2.694c2.674,0.366,3.548,13.804,3.548,13.804s-13.112,5.01-19.168,4.63
								C602.602,260.476,603.382,252.729,603.382,252.729z"/>
							<polygon style="fill:#738BEF;" points="613.431,245.045 607.636,235.998 611.708,233.319 616.82,243.724 							"/>
						</g>
						<g>
							<path style="fill:#FFFFFF;" d="M596.521,249.207l1.231-12.256l18.157-22.392l1.792-11.639
								c-11.793,6.194-29.573,18.839-39.287,41.898c-15.383,36.519,4.717,36.951,9.234,36.509
								c4.517-0.442,26.838-12.217,26.838-12.217l-7.453-24.292L596.521,249.207z"/>
							<path style="fill:none;stroke:#12120E;stroke-linecap:round;stroke-miterlimit:10;" d="M583.357,254.704l23.675-9.885
								l7.453,24.292c0,0-22.32,11.775-26.838,12.217c-4.517,0.442-24.618,0.01-9.234-36.509c0,0,4.916-14.732,19.332-27.716
								c14.416-12.984,26.717-18.124,26.717-18.124"/>
						</g>
					</g>
					<g>
						<g>
							<path style="fill:#12120E;" d="M650.156,284.308h-25.509c-4.044,0-7.323-3.279-7.323-7.323v-38.503
								c0-4.044,3.279-7.323,7.323-7.323h25.509c4.044,0,7.323,3.279,7.323,7.323v38.503
								C657.479,281.029,654.201,284.308,650.156,284.308z"/>
							<g>
								<path style="fill:#738BEF;" d="M644.593,235.384H630.21c-1.512,0-2.737-1.226-2.737-2.737v-0.241
									c0-1.512,1.226-2.737,2.737-2.737h14.383c1.512,0,2.737,1.225,2.737,2.737v0.241
									C647.331,234.158,646.105,235.384,644.593,235.384z"/>
								<path style="fill:#738BEF;" d="M637.402,225.585c-2.438,0-4.415,1.977-4.415,4.415c0,2.438,1.976,4.415,4.415,4.415
									c2.438,0,4.415-1.977,4.415-4.415C641.816,227.561,639.84,225.585,637.402,225.585z M637.402,232.411
									c-1.331,0-2.411-1.079-2.411-2.411c0-1.331,1.079-2.411,2.411-2.411c1.331,0,2.411,1.079,2.411,2.411
									C639.812,231.331,638.733,232.411,637.402,232.411z"/>
							</g>
						</g>
						<g>
							<g>
								<path style="fill:#FCD7C8;" d="M657.479,250.947v3.914c0,0-8.105-4.193-9.925-3.899c-1.82,0.294-2.538,1.777-1.018,3.2
									c0,0-2.247-0.588-2.888,0.866c-0.641,1.453,0.495,2.683,1.951,3.485c0,0-2.05-0.721-2.357,0.633
									c-0.307,1.354,3.302,3.491,3.302,3.491s-1.642-1.253-2.192-0.483c-0.55,0.77,0.198,2.833,6.018,5.561
									c5.82,2.727,10.53,4.589,10.53,4.589l7.797-12.611L657.479,250.947z"/>
								<g>
									
										<line style="fill:none;stroke:#12120E;stroke-linecap:round;stroke-miterlimit:10;" x1="645.569" y1="262.315" x2="652.107" y2="265.621"/>
									
										<line style="fill:none;stroke:#12120E;stroke-linecap:round;stroke-miterlimit:10;" x1="644.241" y1="257.765" x2="653.674" y2="262.962"/>
									
										<line style="fill:none;stroke:#12120E;stroke-linecap:round;stroke-miterlimit:10;" x1="646.206" y1="253.923" x2="656.136" y2="259.569"/>
								</g>
							</g>
							<g>
								<path style="fill:#FFFFFF;" d="M687.218,242.311c-10.367-20.799-28.258-35.505-40.489-39.771l2.648,4
									c4.689,3.878,9.373,8.66,12.049,13.892c5.69,11.126,10.12,26.838,11.395,31.592c-2.466-0.651-4.255-1.076-4.255-1.076
									l-8.831,25.195c0,0,11.491,5.412,16.221,7.056c4.178,1.453,14.249,2.635,18.339-4.436
									C697.7,272.878,695.953,259.835,687.218,242.311z"/>
								<path style="fill:none;stroke:#12120E;stroke-linecap:round;stroke-miterlimit:10;" d="M683.974,255.477
									c-5.424-2.161-15.408-4.529-15.408-4.529l-8.831,25.195c0,0,11.518,5.335,16.221,7.056
									c14.116,5.165,30.49-2.313,11.262-40.888c0,0-7.56-16.035-24.493-30.365c-13.134-11.114-20.145-13.847-22.63-14.513"/>
							</g>
						</g>
					</g>
					<g>
						<g>
							
								<ellipse transform="matrix(0.2317 -0.9728 0.9728 0.2317 316.1055 749.655)" style="fill:#12120E;" cx="632.621" cy="174.717" rx="19.212" ry="19.212"/>
							<circle style="fill:#12120E;" cx="649.748" cy="148.124" r="10.266"/>
						</g>
						<path style="fill:#EE80A6;" d="M640.78,200.839c0,3.004-3.653,5.439-8.159,5.439c-4.506,0-8.158-2.435-8.158-5.439
							c0-3.004,3.653-5.438,8.158-5.438C637.127,195.401,640.78,197.836,640.78,200.839z"/>
						<g>
							<g>
								<path style="fill:#FCD7C8;" d="M631.944,165.662l-6.52-0.331c-4.335-0.22-8.086,3.638-8.336,8.573l-0.513,10.107
									c-0.25,4.935,3.091,9.153,7.426,9.373l2.231,0.113v3.442c0,2.854,2.314,5.168,5.168,5.168h2
									c2.854,0,5.168-2.314,5.168-5.168v-4.643l0.273-5.381c0.016-0.319-0.009-0.63-0.064-0.931
									c0.037-0.277,0.066-0.557,0.081-0.842l0.513-10.107C639.62,170.1,636.279,165.882,631.944,165.662z"/>
								<g>
									<g>
										<path style="fill:#12120E;" d="M629.967,177.868c-0.041,0.812-0.732,1.436-1.544,1.395
											c-0.812-0.041-1.436-0.732-1.395-1.544c0.041-0.812,0.733-1.436,1.544-1.395
											C629.384,176.365,630.008,177.056,629.967,177.868z"/>
										<path style="fill:#12120E;" d="M620.356,177.165c-0.035,0.693-0.625,1.226-1.318,1.191
											c-0.693-0.035-1.226-0.625-1.191-1.318c0.035-0.693,0.625-1.226,1.318-1.191
											C619.858,175.882,620.391,176.472,620.356,177.165z"/>
									</g>
									
										<path style="fill:none;stroke:#000000;stroke-width:0.75;stroke-linecap:round;stroke-linejoin:round;stroke-miterlimit:10;" d="
										M621.454,183.249c0,0,0.629,2.19,2.183,2.417c1.554,0.227,2.866-1.441,3.019-2.787"/>
									<g>
										<path style="fill:#FFA6A6;" d="M635.055,183.532c-0.102,2.018-1.821,3.57-3.839,3.468
											c-2.018-0.102-3.57-1.821-3.468-3.839c0.102-2.018,1.821-3.57,3.838-3.468
											C633.605,179.796,635.157,181.514,635.055,183.532z"/>
										<path style="fill:#FFA6A6;" d="M617.422,180.184c-0.222-0.011-0.439,0.007-0.649,0.046l-0.192,3.789
											c-0.029,0.566-0.036,1.115,0.052,1.654c0.151,0.034,0.347,0.065,0.507,0.073c1.535,0.078,2.844-1.104,2.922-2.639
											C620.139,181.57,618.957,180.262,617.422,180.184z"/>
									</g>
								</g>
								<g>
									<path style="fill:#FCD7C8;" d="M647.227,182.454c-0.144,2.844-2.585,5.031-5.452,4.885
										c-2.867-0.145-5.074-2.569-4.929-5.412c0.144-2.843,2.585-5.031,5.452-4.885
										C645.165,177.188,647.372,179.611,647.227,182.454z"/>
									<path style="fill:none;stroke:#12120E;stroke-linecap:round;stroke-miterlimit:10;" d="M639.195,182.728
										c0,0-0.051-3.509,3.52-2.938"/>
								</g>
								<g>
									<path style="fill:none;stroke:#12120E;stroke-linecap:round;stroke-miterlimit:10;" d="M618.241,174.639
										c0.601-0.212,1.225-0.358,1.857-0.435"/>
									<path style="fill:none;stroke:#12120E;stroke-linecap:round;stroke-miterlimit:10;" d="M627.552,173.958
										c1.249,0.123,2.485,0.378,3.682,0.759"/>
									
										<path style="fill:none;stroke:#12120E;stroke-width:0.75;stroke-linecap:round;stroke-linejoin:round;stroke-miterlimit:10;" d="
										M623.611,176.051c-0.487,1.267-1.056,2.503-1.701,3.697c0.506,0.168,1.366,0.35,2.015,0.46"/>
								</g>
								<path style="fill:#12120E;" d="M639.572,165.317c-3.439-3.933-20.995-8.826-23.681,8.442c0,0,5.371-1.647,8.538-6.757
									c0,0,0.556,3.879,10.045,8.153c0.837,0.377,1.595,0.671,2.289,0.9l0.475,4.153l2.913-3.562
									C645.326,176.385,642.313,168.452,639.572,165.317z"/>
							</g>
						</g>
					</g>
				</g>
			</g>
		</g>
	</g>
</g>
</svg>
